<svg width="500" height="500" viewBox="0 0 500 500" fill="none" xmlns="http://www.w3.org/2000/svg">
<path d="M210.992 233C232.192 248.2 231.492 275.667 228.492 287.5C212.893 260.3 189.325 244.833 179.491 240.5C203.491 259.3 217.824 285 221.991 295.5C179.591 296.3 162.991 266.5 157.991 254.5C154.496 246.5 152.825 220.5 152.992 208.5C163.492 210.333 189.792 217.8 210.992 233Z" fill="#A5CB3A"/>
<path d="M227.267 73C225.858 75.0835 225.666 77.0119 225.337 78.88C221.663 99.5727 219.597 120.339 220.066 141.203C220.182 146.36 220.568 151.512 223.743 156.347C226.255 160.172 229.741 163.49 233.685 166.619C236.204 168.621 238.652 170.668 239.927 173.253C240.631 174.658 241 176.134 241.018 177.623C241.108 190.628 240.594 203.633 239.612 216.612C239.005 224.61 238.194 232.596 237.179 240.571C236.129 248.847 234.765 257.102 233.61 265.373C232.073 276.436 230.191 287.471 230.521 298.621C230.697 304.664 231.571 310.668 233.52 316.563C235.218 321.663 240.426 325.17 247.522 325.88C253.715 326.5 258.435 324.692 261.85 321.109C264.238 318.602 264.875 315.678 265.633 312.806C268.384 302.394 268.268 291.937 266.885 281.428C265.423 270.146 263.271 258.92 261.636 247.657C259.901 235.818 258.514 223.961 257.723 212.067C257.029 201.613 256.834 191.151 256.549 180.689C256.395 174.961 258.993 170.179 264.201 165.926C266.798 163.8 269.396 161.675 271.698 159.381C275.447 155.661 277.265 151.499 277.621 146.999C278.465 136.403 277.734 125.817 277.036 115.232C276.575 108.238 275.912 101.252 274.993 94.2813C274.15 87.9757 273.453 81.6465 271.312 75.4644C271.046 74.6946 270.963 73.4099 269.812 73.4519C268.662 73.4939 269.063 74.7656 268.961 75.4907C268.68 77.9761 268.478 80.4826 268.437 82.9628C268.26 94.347 268.212 105.731 267.552 117.118C267.32 121.177 267.121 125.263 265.775 129.238C265.49 130.089 265.49 131.405 263.972 131.411C262.574 131.411 262.559 130.118 262.285 129.309C260.815 124.945 260.452 120.481 260.103 116.03C259.237 104.932 258.559 93.8242 257.73 82.7211C257.546 80.2803 257.059 77.8474 256.692 75.4145C256.614 75.025 256.499 74.6397 256.347 74.2611C256.219 73.8933 256.189 73.3468 255.503 73.3862C254.817 73.4256 254.866 73.9695 254.802 74.3426C254.559 75.7298 254.244 77.117 254.154 78.5121C253.779 84.5917 253.779 90.6793 253.711 96.7641C253.644 105.697 253.55 114.63 252.587 123.542C252.362 125.583 252.054 127.633 251.2 129.611C251.084 129.905 250.945 130.195 250.783 130.478C250.491 130.961 250.206 131.508 249.284 131.489C248.452 131.474 248.201 130.964 247.927 130.523C246.915 128.899 246.544 127.162 246.247 125.431C244.617 115.988 244.418 106.488 243.998 96.998C243.694 90.3035 243.522 83.5986 242.81 76.9226C242.701 75.9268 242.352 74.9416 242.124 73.9511C242.064 73.6884 241.925 73.3599 241.561 73.3232C240.999 73.2627 240.853 73.6831 240.789 73.9458C240.402 75.3104 240.115 76.6881 239.931 78.0734C239.128 87.2532 239.095 96.4515 238.724 105.639C238.427 112.943 238.311 120.258 236.89 127.514C236.722 128.601 236.353 129.668 235.792 130.688C235.578 131.053 235.383 131.476 234.69 131.461C233.996 131.445 233.775 131.035 233.565 130.672C232.654 129.122 232.321 127.467 232.039 125.825C230.892 119.083 230.495 112.305 230.113 105.526C229.599 96.3858 229.363 87.2348 228.534 78.1049C228.388 76.5232 228.384 74.8812 227.267 73Z" fill="#A5CB3A"/>
<path d="M181.089 188.913C178.489 191.513 174.247 191.531 171.895 188.705C167.2 183.065 163.375 176.74 160.557 169.938C156.888 161.081 155 151.588 155 142.002C155 132.415 156.888 122.922 160.557 114.066C163.375 107.263 167.2 100.938 171.895 95.2985C174.247 92.4726 178.489 92.4905 181.089 95.0905C183.689 97.6904 183.655 101.885 181.361 104.758C177.872 109.128 175.007 113.975 172.858 119.161C169.859 126.403 168.315 134.164 168.315 142.002C168.315 149.84 169.859 157.601 172.858 164.842C175.007 170.028 177.872 174.875 181.361 179.245C183.655 182.118 183.689 186.313 181.089 188.913Z" fill="#1A6372"/>
<path d="M316.708 188.53C319.308 191.13 323.55 191.148 325.902 188.322C330.597 182.682 334.422 176.357 337.24 169.555C340.909 160.698 342.797 151.205 342.797 141.619C342.797 132.032 340.909 122.54 337.24 113.683C334.422 106.88 330.597 100.555 325.902 94.9157C323.55 92.0898 319.308 92.1077 316.708 94.7076C314.108 97.3076 314.142 101.502 316.436 104.376C319.925 108.745 322.79 113.592 324.938 118.778C327.938 126.02 329.482 133.781 329.482 141.619C329.482 149.457 327.938 157.218 324.938 164.459C322.79 169.646 319.925 174.493 316.436 178.862C314.142 181.735 314.108 185.93 316.708 188.53Z" fill="#1A6372"/>
<path d="M249 15C335.156 15 405 84.8436 405 171C405 252.632 342.3 319.616 262.432 326.427C270.54 321.768 276 313.022 276 303C276 301.559 275.885 300.145 275.668 298.766C334.948 286.456 379.495 233.931 379.495 171C379.495 98.9294 321.071 40.5049 249 40.5049C176.929 40.5049 118.505 98.9294 118.505 171C118.505 203.753 130.573 233.686 150.503 256.599C159.53 283.566 184.995 303 215 303C217.364 303 219.701 302.878 222.003 302.643C222.001 302.762 222 302.881 222 303C222 313.022 227.46 321.768 235.567 326.427C155.7 319.615 93 252.631 93 171C93 84.8436 162.844 15 249 15Z" fill="#1A6071"/>
<path d="M359.038 60.4219C381.717 82.9908 396.908 111.987 402.552 143.48C408.196 174.974 404.019 207.441 390.589 236.48C377.159 265.52 355.124 289.729 327.472 305.823C307.487 317.455 285.267 324.441 262.445 326.416C270.545 321.755 275.998 313.014 275.998 302.998C275.998 301.549 275.882 300.126 275.662 298.738C289.295 295.893 302.465 290.868 314.642 283.78C337.773 270.317 356.206 250.066 367.44 225.774C378.675 201.483 382.168 174.324 377.447 147.979C372.726 121.635 360.019 97.3791 341.048 78.5L359.038 60.4219Z" fill="#A5C938"/>
<path d="M299.099 112.682C301.76 110.251 305.928 110.418 307.992 113.372C313.76 121.631 316.929 131.488 316.998 141.663C317.067 151.838 314.031 161.737 308.375 170.073C306.352 173.055 302.187 173.278 299.493 170.884C296.799 168.49 296.615 164.388 298.499 161.315C302.085 155.468 303.995 148.696 303.948 141.751C303.901 134.806 301.899 128.062 298.235 122.263C296.31 119.217 296.438 115.112 299.099 112.682Z" fill="#1A6372"/>
<path d="M198.901 112.401C196.24 109.97 192.072 110.137 190.008 113.091C184.24 121.35 181.071 131.207 181.002 141.382C180.933 151.557 183.969 161.456 189.625 169.792C191.648 172.774 195.813 172.997 198.507 170.603C201.201 168.209 201.385 164.106 199.501 161.034C195.915 155.186 194.005 148.415 194.052 141.47C194.099 134.525 196.101 127.781 199.765 121.982C201.69 118.935 201.562 114.831 198.901 112.401Z" fill="#1A6372"/>
<path d="M45.799 429C42.7963 429 41.295 427.391 41.295 424.174V341.557C41.295 338.34 42.7963 336.731 45.799 336.731H68.2549C87.987 336.731 101.328 340.721 108.277 348.699C115.269 356.678 118.765 368.024 118.765 382.737C118.765 397.45 115.269 408.839 108.277 416.903C101.328 424.968 87.987 429 68.2549 429H45.799ZM60.0833 413.043H67.0324C80.3301 413.043 88.9307 410.576 92.8342 405.643C96.7377 400.667 98.6895 393.032 98.6895 382.737C98.6895 372.442 96.7377 364.849 92.8342 359.959C88.9307 355.026 80.3301 352.56 67.0324 352.56H60.0833V413.043ZM136.91 429C134.336 429 133.049 427.713 133.049 425.139V365.3C133.049 362.726 134.336 361.439 136.91 361.439H147.205C149.778 361.439 151.065 362.726 151.065 365.3V425.139C151.065 427.713 149.778 429 147.205 429H136.91ZM136.91 351.53C134.336 351.53 133.049 350.243 133.049 347.67V339.434C133.049 336.86 134.336 335.573 136.91 335.573H147.205C149.778 335.573 151.065 336.86 151.065 339.434V347.67C151.065 350.243 149.778 351.53 147.205 351.53H136.91ZM172.427 429C169.853 429 168.567 427.713 168.567 425.139V365.3C168.567 362.726 169.853 361.439 172.427 361.439H182.594C185.167 361.439 186.454 362.726 186.454 365.3V369.032H186.712C188.685 365.643 191.194 363.327 194.24 362.083C197.285 360.796 200.953 360.152 205.242 360.152C211.934 360.152 217.468 362.254 221.843 366.458C226.218 370.662 228.406 378.34 228.406 389.493V425.139C228.406 427.713 227.119 429 224.546 429H214.251C211.677 429 210.39 427.713 210.39 425.139V394.126C210.39 384.774 209.747 378.876 208.46 376.431C207.173 373.986 204.406 372.764 200.159 372.764C195.655 372.764 192.267 374.522 189.993 378.04C187.72 381.514 186.583 388.764 186.583 399.788V425.139C186.583 427.713 185.296 429 182.722 429H172.427ZM242.176 395.22C242.176 384.367 244.878 375.809 250.283 369.547C255.731 363.284 263.409 360.152 273.318 360.152C284.814 360.152 293.35 363.112 298.927 369.032C304.503 374.951 307.291 384.474 307.291 397.6C307.291 400.174 306.09 401.461 303.688 401.461H261.221C261.908 408.582 263.666 413.064 266.498 414.909C269.329 416.753 272.61 417.676 276.342 417.676C279.902 417.676 282.626 417.204 284.514 416.26C286.401 415.316 287.988 414.029 289.275 412.399C290.734 410.512 292.535 410.212 294.68 411.499L301.114 415.424C303.645 416.968 304.01 418.812 302.208 420.957C299.592 424.088 296.525 426.426 293.007 427.971C289.49 429.515 283.935 430.287 276.342 430.287C264.031 430.287 255.259 427.155 250.026 420.893C244.792 414.63 242.176 406.072 242.176 395.22ZM261.286 388.592H289.275C289.275 383.959 288.117 380.185 285.801 377.268C283.484 374.308 279.795 372.828 274.734 372.828C270.701 372.828 267.506 374.244 265.146 377.075C262.787 379.863 261.5 383.702 261.286 388.592Z" fill="#1C5C6C"/>
<path d="M327.799 429C324.796 429 323.295 427.391 323.295 424.174V341.557C323.295 338.34 324.796 336.731 327.799 336.731H378.695C381.912 336.731 383.521 338.125 383.521 340.914V348.506C383.521 351.294 381.912 352.688 378.695 352.688H342.083V375.08H373.419C376.636 375.08 378.244 376.474 378.244 379.262V386.855C378.244 389.643 376.636 391.037 373.419 391.037H342.083V424.174C342.083 427.391 340.582 429 337.579 429H327.799Z" fill="#A5C940"/>
<path d="M422.499 374.308C419.968 374.308 418.702 373.236 418.702 371.091V364.656C418.702 362.512 419.968 361.439 422.499 361.439H426.874V359.187C426.874 357.257 427.324 355.498 428.225 353.911L433.18 345.225C434.123 343.595 435.239 342.78 436.526 342.78H441.03C443.603 342.78 444.89 344.066 444.89 346.64V361.439H455.314C457.845 361.439 459.11 362.512 459.11 364.656V371.091C459.11 373.236 457.845 374.308 455.314 374.308H444.89V406.222C444.89 410.598 445.191 413.751 445.791 415.681C446.435 417.568 448.065 418.512 450.681 418.512C452.011 418.512 453.512 418.298 455.185 417.869C456.858 417.397 458.167 416.946 459.11 416.517C460.612 415.831 461.598 416.324 462.07 417.997L464 425.332C464.386 426.791 463.829 427.863 462.327 428.55C460.912 429.193 458.96 429.772 456.472 430.287C454.027 430.845 451.561 431.123 449.073 431.123C442.939 431.123 437.705 429.858 433.373 427.327C429.04 424.796 426.874 419.584 426.874 411.692V374.308H422.499Z" fill="#A3C73D"/>
<path d="M392.008 317C392.47 317.778 392.472 318.458 392.532 319.112C392.875 322.89 392.972 326.677 393.184 330.459C393.343 333.264 393.508 336.07 393.982 338.859C394.099 339.539 394.236 340.224 394.613 340.865C394.7 341.015 394.792 341.185 395.079 341.191C395.366 341.198 395.447 341.023 395.535 340.872C395.767 340.45 395.92 340.008 395.989 339.559C396.577 336.556 396.625 333.528 396.748 330.506C396.901 326.704 396.916 322.898 397.248 319.1C397.324 318.527 397.442 317.956 397.602 317.392C397.629 317.283 397.69 317.109 397.923 317.134C398.073 317.149 398.13 317.285 398.155 317.394C398.25 317.803 398.394 318.211 398.439 318.623C398.734 321.386 398.805 324.16 398.931 326.931C399.104 330.858 399.186 334.789 399.861 338.696C399.984 339.413 400.138 340.131 400.556 340.803C400.67 340.985 400.774 341.197 401.118 341.203C401.5 341.211 401.617 340.984 401.738 340.784C401.805 340.667 401.863 340.547 401.911 340.426C402.265 339.607 402.391 338.759 402.484 337.914C402.883 334.226 402.922 330.53 402.95 326.834C402.978 324.316 402.978 321.797 403.133 319.281C403.17 318.704 403.3 318.13 403.401 317.556C403.428 317.401 403.408 317.176 403.691 317.159C403.975 317.143 403.988 317.369 404.041 317.521C404.104 317.678 404.151 317.838 404.183 317.999C404.335 319.006 404.537 320.012 404.613 321.022C404.956 325.617 405.236 330.213 405.595 334.806C405.739 336.647 405.89 338.495 406.498 340.301C406.611 340.636 406.618 341.171 407.196 341.171C407.824 341.169 407.824 340.624 407.942 340.271C408.499 338.627 408.581 336.936 408.678 335.256C408.951 330.544 408.971 325.833 409.044 321.122C409.061 320.096 409.144 319.059 409.261 318.03C409.302 317.73 409.137 317.204 409.613 317.187C410.089 317.169 410.123 317.701 410.233 318.02C411.119 320.578 411.408 323.197 411.757 325.807C412.137 328.691 412.412 331.582 412.602 334.476C412.891 338.856 413.194 343.236 412.845 347.621C412.697 349.483 411.945 351.206 410.393 352.745C409.441 353.694 408.366 354.574 407.291 355.453C405.352 357.037 404.29 358.799 404.142 360.863H397.698C397.697 360.674 397.698 360.484 397.697 360.294C397.69 359.678 397.537 359.067 397.246 358.485C396.718 357.416 395.705 356.569 394.663 355.74C393.031 354.445 391.588 353.072 390.549 351.489C389.235 349.489 389.075 347.357 389.027 345.223C388.833 336.589 389.689 327.995 391.209 319.433C391.345 318.66 391.424 317.862 392.008 317Z" fill="#A3C73D"/>
<rect x="392" y="364.863" width="18" height="64" rx="4" fill="#A3C73D"/>
</svg>
